<svg xmlns="http://www.w3.org/2000/svg" viewBox="0 0 640 144" role="img" aria-labelledby="title">
  <title id="title">SNAPVERE — Capture. Edit. Done.</title>
  <defs>
    <linearGradient id="bg" x1="12" y1="10" x2="132" y2="134" gradientUnits="userSpaceOnUse"><stop stop-color="#281C48"/><stop offset="1" stop-color="#14192A"/></linearGradient>
    <linearGradient id="blade" x1="38" y1="110" x2="108" y2="28" gradientUnits="userSpaceOnUse"><stop stop-color="#5C3EE8"/><stop offset=".52" stop-color="#8051F4"/><stop offset="1" stop-color="#A96CF3"/></linearGradient>
    <linearGradient id="word" x1="182" y1="0" x2="544" y2="0" gradientUnits="userSpaceOnUse"><stop offset=".55" stop-color="#171A24"/><stop offset="1" stop-color="#7048D7"/></linearGradient>
  </defs>
  <rect x="4" y="4" width="136" height="136" rx="34" fill="url(#bg)" stroke="#624BC8" stroke-width="4"/>
  <path d="M34 111C43 75 65 43 111 24C102 63 80 96 34 116C50 90 67 70 93 49C68 62 50 83 34 111Z" fill="url(#blade)"/>
  <path d="M42 102C58 78 74 61 96 44C80 68 65 86 42 102Z" fill="#EEE2FF" fill-opacity=".84"/>
  <path d="M37 116C53 95 68 79 86 66" fill="none" stroke="#F8F3FF" stroke-width="4" stroke-linecap="round"/>
  <text x="178" y="77" fill="url(#word)" font-family="Segoe UI, Arial, sans-serif" font-size="52" font-weight="700" letter-spacing="2.4">SNAPVERE</text>
  <text x="181" y="108" fill="#5F6879" font-family="Segoe UI, Arial, sans-serif" font-size="18" font-weight="500">Capture. Edit. Done.</text>
</svg>
