<svg xmlns="http://www.w3.org/2000/svg" viewBox="0 0 128 128" role="img" aria-labelledby="title desc">
<title id="title">SNAPVERE symbol</title><desc id="desc">Viewfinder corners and a lightning bolt.</desc>
<defs><linearGradient id="tile" x1="0" y1="0" x2="1" y2="1"><stop stop-color="#211942"/><stop offset=".5" stop-color="#151838"/><stop offset="1" stop-color="#101625"/></linearGradient><linearGradient id="brand" x1="0" y1="0" x2="1" y2="1"><stop stop-color="#B9A1FF"/><stop offset=".46" stop-color="#8B6DFF"/><stop offset="1" stop-color="#574EEB"/></linearGradient></defs>
<rect x="1" y="1" width="126" height="126" rx="30" fill="url(#tile)" stroke="#4B427F" stroke-width="1.5"/><rect x="9" y="9" width="110" height="110" rx="24" fill="none" opacity=".18" stroke="#8A71DE"/>
<g fill="none" stroke="#B5A1FF" stroke-width="5" stroke-linecap="round" stroke-linejoin="round"><path d="M26 49V35Q26 27 34 27H47"/><path d="M81 27H94Q102 27 102 35V49"/><path d="M102 79V93Q102 101 94 101H81"/><path d="M47 101H34Q26 101 26 93V79"/></g>
<path d="M73 35 48 67h17L55 93l30-35H67Z" fill="url(#brand)" stroke="#E3D9FF" stroke-width="1.7" stroke-linejoin="round"/>
</svg>